<svg width="16" height="16" viewBox="0 0 16 16" fill="none" xmlns="http://www.w3.org/2000/svg">
<path d="M14.537 6.69429H14V6.66663H7.99998V9.33329H11.7676C11.3293 10.565 9.80498 11.6666 7.99998 11.6666C5.97498 11.6666 4.33331 10.025 4.33331 7.99996C4.33331 5.97496 5.97498 4.33329 7.99998 4.33329C8.93465 4.33329 9.78398 4.68429 10.4306 5.25929L12.3163 3.37363C11.0783 2.41896 9.60598 1.66663 7.99998 1.66663C4.31831 1.66663 1.33331 4.65163 1.33331 8.33329C1.33331 12.015 4.31831 15 7.99998 15C11.6816 15 14.6666 12.015 14.6666 8.33329C14.6666 7.88629 14.6206 7.44996 14.537 7.02763V6.69429Z" fill="#FFC107"/>
<path d="M2.10199 4.89696L4.29232 6.50329C4.88499 5.36929 6.33366 4.33329 7.99999 4.33329C8.93466 4.33329 9.78399 4.68429 10.4307 5.25929L12.3163 3.37363C11.0783 2.41896 9.60599 1.66663 7.99999 1.66663C5.43932 1.66663 3.21866 2.96063 2.10199 4.89696Z" fill="#FF3D00"/>
<path d="M8.00001 15C9.57201 15 11.0177 14.4063 12.1047 13.4337L10.1197 11.7237C9.53935 12.2353 8.79235 12.5 8.00001 12.5C6.20201 12.5 4.68168 11.4033 4.23601 9.87732L2.06201 11.5523C3.16268 13.6983 5.41168 15 8.00001 15Z" fill="#4CAF50"/>
<path d="M14.537 6.69429H14V6.66663H8V9.33329H11.7677C11.551 9.92496 11.1527 10.4286 10.642 10.786L12.628 12.4956C12.326 12.8123 14.6667 11 14.6667 7.99996C14.6667 7.55296 14.6207 7.11663 14.537 6.69429Z" fill="#1976D2"/>
</svg>
